<svg width="24" height="24" viewBox="0 0 24 24" fill="none" xmlns="http://www.w3.org/2000/svg">
<g clip-path="url(#clip0_772_369)">
<g clip-path="url(#clip1_772_369)">
<path d="M11 6.5C14.79 6.5 18.17 8.63 19.82 12C18.17 15.37 14.8 17.5 11 17.5C7.2 17.5 3.83 15.37 2.18 12C3.83 8.63 7.21 6.5 11 6.5ZM11 4.5C6 4.5 1.73 7.61 0 12C1.73 16.39 6 19.5 11 19.5C16 19.5 20.27 16.39 22 12C20.27 7.61 16 4.5 11 4.5ZM11 9.5C12.38 9.5 13.5 10.62 13.5 12C13.5 13.38 12.38 14.5 11 14.5C9.62 14.5 8.5 13.38 8.5 12C8.5 10.62 9.62 9.5 11 9.5ZM11 7.5C8.52 7.5 6.5 9.52 6.5 12C6.5 14.48 8.52 16.5 11 16.5C13.48 16.5 15.5 14.48 15.5 12C15.5 9.52 13.48 7.5 11 7.5Z" fill="#BCBCBC"/>
</g>
</g>
<defs>
<clipPath id="clip0_772_369">
<rect width="24" height="24" fill="white"/>
</clipPath>
<clipPath id="clip1_772_369">
<rect width="24" height="24" fill="white" transform="translate(-1)"/>
</clipPath>
</defs>
</svg>
